<svg width="25" height="25" viewBox="0 0 25 25" fill="none" xmlns="http://www.w3.org/2000/svg">
<path d="M8.12498 2.08334H16.875C20.2083 2.08334 22.9166 4.79168 22.9166 8.12501V16.875C22.9166 18.4774 22.2801 20.0141 21.1471 21.1471C20.0141 22.2801 18.4773 22.9167 16.875 22.9167H8.12498C4.79165 22.9167 2.08331 20.2083 2.08331 16.875V8.12501C2.08331 6.52266 2.71984 4.98594 3.85288 3.85291C4.98591 2.71987 6.52263 2.08334 8.12498 2.08334ZM7.91665 4.16668C6.92208 4.16668 5.96826 4.56177 5.265 5.26503C4.56173 5.96829 4.16665 6.92212 4.16665 7.91668V17.0833C4.16665 19.1563 5.84373 20.8333 7.91665 20.8333H17.0833C18.0779 20.8333 19.0317 20.4383 19.735 19.735C20.4382 19.0317 20.8333 18.0779 20.8333 17.0833V7.91668C20.8333 5.84376 19.1562 4.16668 17.0833 4.16668H7.91665ZM17.9687 5.72918C18.3141 5.72918 18.6453 5.86636 18.8894 6.11055C19.1336 6.35474 19.2708 6.68593 19.2708 7.03126C19.2708 7.37659 19.1336 7.70778 18.8894 7.95197C18.6453 8.19616 18.3141 8.33334 17.9687 8.33334C17.6234 8.33334 17.2922 8.19616 17.048 7.95197C16.8038 7.70778 16.6666 7.37659 16.6666 7.03126C16.6666 6.68593 16.8038 6.35474 17.048 6.11055C17.2922 5.86636 17.6234 5.72918 17.9687 5.72918ZM12.5 7.29168C13.8813 7.29168 15.2061 7.84041 16.1828 8.81716C17.1596 9.79391 17.7083 11.1187 17.7083 12.5C17.7083 13.8813 17.1596 15.2061 16.1828 16.1829C15.2061 17.1596 13.8813 17.7083 12.5 17.7083C11.1186 17.7083 9.79388 17.1596 8.81713 16.1829C7.84038 15.2061 7.29165 13.8813 7.29165 12.5C7.29165 11.1187 7.84038 9.79391 8.81713 8.81716C9.79388 7.84041 11.1186 7.29168 12.5 7.29168ZM12.5 9.37501C11.6712 9.37501 10.8763 9.70425 10.2903 10.2903C9.70422 10.8764 9.37498 11.6712 9.37498 12.5C9.37498 13.3288 9.70422 14.1237 10.2903 14.7097C10.8763 15.2958 11.6712 15.625 12.5 15.625C13.3288 15.625 14.1236 15.2958 14.7097 14.7097C15.2957 14.1237 15.625 13.3288 15.625 12.5C15.625 11.6712 15.2957 10.8764 14.7097 10.2903C14.1236 9.70425 13.3288 9.37501 12.5 9.37501Z" fill="white"/>
</svg>
